<?xml version="1.0" encoding="utf-8"?>
<!-- Generator: Adobe Illustrator 24.1.0, SVG Export Plug-In . SVG Version: 6.00 Build 0)  -->
<svg version="1.1" xmlns="http://www.w3.org/2000/svg" xmlns:xlink="http://www.w3.org/1999/xlink" x="0px" y="0px"
	 viewBox="0 0 24 24" style="enable-background:new 0 0 24 24;" xml:space="preserve">
<style type="text/css">
	.st0{fill:none;}
	.st1{clip-path:url(#SVGID_2_);}
	.st2{fill:none;stroke:#000000;stroke-width:0.25;stroke-miterlimit:10;}
	.st3{opacity:0.4;}
	.st4{clip-path:url(#SVGID_4_);fill:none;stroke:#000000;stroke-width:0.25;stroke-miterlimit:10;}
	.st5{clip-path:url(#SVGID_4_);}
	.st6{display:none;}
	.st7{display:inline;opacity:0.2;}
	.st8{fill:#808184;}
	.st9{fill:#003C71;}
	.st10{fill:#FFFFFF;}
	.st11{opacity:0;fill:#003C71;}
</style>
<symbol  id="material_x5F_system_x5F_icon_x5F_border" viewBox="0 -48 48 48">
	<rect y="-48" class="st0" width="48" height="48"/>
</symbol>
<symbol  id="material_x5F_system_x5F_icon_x5F_grid" viewBox="0 -48 48 48">
	<g>
		<defs>
			<rect id="SVGID_1_" x="0" y="-48" width="48" height="48"/>
		</defs>
		<clipPath id="SVGID_2_">
			<use xlink:href="#SVGID_1_"  style="overflow:visible;"/>
		</clipPath>
		<g class="st1">
			<g>
				<line class="st2" x1="2" y1="-48" x2="2" y2="0"/>
				<line class="st2" x1="4" y1="-48" x2="4" y2="0"/>
				<line class="st2" x1="6" y1="-48" x2="6" y2="0"/>
				<line class="st2" x1="8" y1="-48" x2="8" y2="0"/>
				<line class="st2" x1="10" y1="-48" x2="10" y2="0"/>
				<line class="st2" x1="12" y1="-48" x2="12" y2="0"/>
				<line class="st2" x1="14" y1="-48" x2="14" y2="0"/>
				<line class="st2" x1="16" y1="-48" x2="16" y2="0"/>
				<line class="st2" x1="18" y1="-48" x2="18" y2="0"/>
				<line class="st2" x1="20" y1="-48" x2="20" y2="0"/>
				<line class="st2" x1="22" y1="-48" x2="22" y2="0"/>
				<line class="st2" x1="24" y1="-48" x2="24" y2="0"/>
				<line class="st2" x1="26" y1="-48" x2="26" y2="0"/>
				<line class="st2" x1="28" y1="-48" x2="28" y2="0"/>
				<line class="st2" x1="30" y1="-48" x2="30" y2="0"/>
				<line class="st2" x1="32" y1="-48" x2="32" y2="0"/>
				<line class="st2" x1="34" y1="-48" x2="34" y2="0"/>
				<line class="st2" x1="36" y1="-48" x2="36" y2="0"/>
				<line class="st2" x1="38" y1="-48" x2="38" y2="0"/>
				<line class="st2" x1="40" y1="-48" x2="40" y2="0"/>
				<line class="st2" x1="42" y1="-48" x2="42" y2="0"/>
				<line class="st2" x1="44" y1="-48" x2="44" y2="0"/>
				<line class="st2" x1="46" y1="-48" x2="46" y2="0"/>
			</g>
			<g>
				<line class="st2" x1="0" y1="-2" x2="48" y2="-2"/>
				<line class="st2" x1="0" y1="-4" x2="48" y2="-4"/>
				<line class="st2" x1="0" y1="-6" x2="48" y2="-6"/>
				<line class="st2" x1="0" y1="-8" x2="48" y2="-8"/>
				<line class="st2" x1="0" y1="-10" x2="48" y2="-10"/>
				<line class="st2" x1="0" y1="-12" x2="48" y2="-12"/>
				<line class="st2" x1="0" y1="-14" x2="48" y2="-14"/>
				<line class="st2" x1="0" y1="-16" x2="48" y2="-16"/>
				<line class="st2" x1="0" y1="-18" x2="48" y2="-18"/>
				<line class="st2" x1="0" y1="-20" x2="48" y2="-20"/>
				<line class="st2" x1="0" y1="-22" x2="48" y2="-22"/>
				<line class="st2" x1="0" y1="-24" x2="48" y2="-24"/>
				<line class="st2" x1="0" y1="-26" x2="48" y2="-26"/>
				<line class="st2" x1="0" y1="-28" x2="48" y2="-28"/>
				<line class="st2" x1="0" y1="-30" x2="48" y2="-30"/>
				<line class="st2" x1="0" y1="-32" x2="48" y2="-32"/>
				<line class="st2" x1="0" y1="-34" x2="48" y2="-34"/>
				<line class="st2" x1="0" y1="-36" x2="48" y2="-36"/>
				<line class="st2" x1="0" y1="-38" x2="48" y2="-38"/>
				<line class="st2" x1="0" y1="-40" x2="48" y2="-40"/>
				<line class="st2" x1="0" y1="-42" x2="48" y2="-42"/>
				<line class="st2" x1="0" y1="-44" x2="48" y2="-44"/>
				<line class="st2" x1="0" y1="-46" x2="48" y2="-46"/>
			</g>
			<g>
				<path d="M47.75-0.25v-47.5H0.25v47.5H47.75 M48,0H0v-48h48V0L48,0z"/>
			</g>
		</g>
	</g>
</symbol>
<symbol  id="material_x5F_system_x5F_icon_x5F_keylines" viewBox="0 -48 48 48">
	<g class="st3">
		<defs>
			<rect id="SVGID_3_" x="0" y="-48" class="st3" width="48" height="48"/>
		</defs>
		<clipPath id="SVGID_4_">
			<use xlink:href="#SVGID_3_"  style="overflow:visible;"/>
		</clipPath>
		<line class="st4" x1="24" y1="0" x2="24" y2="-48"/>
		<line class="st4" x1="48" y1="-24" x2="0" y2="-24"/>
		<line class="st4" x1="48" y1="-16" x2="0" y2="-16"/>
		<line class="st4" x1="48" y1="-32" x2="0" y2="-32"/>
		<line class="st4" x1="32" y1="-48" x2="32" y2="0"/>
		<line class="st4" x1="16" y1="-48" x2="16" y2="0"/>
		<line class="st4" x1="47.75" y1="-0.25" x2="0.25" y2="-47.75"/>
		<line class="st4" x1="0.25" y1="-0.25" x2="47.75" y2="-47.75"/>
		<path class="st4" d="M24-14c-5.52,0-10-4.48-10-10c0-5.52,4.48-10,10-10c5.52,0,10,4.48,10,10C34-18.48,29.52-14,24-14z"/>
		<path class="st4" d="M24-4C12.95-4,4-12.95,4-24c0-11.05,8.95-20,20-20c11.05,0,20,8.95,20,20C44-12.95,35.05-4,24-4z"/>
		<path class="st4" d="M38-6H10c-2.21,0-4-1.79-4-4v-28c0-2.21,1.79-4,4-4h28c2.21,0,4,1.79,4,4v28C42-7.79,40.21-6,38-6z"/>
		<path class="st4" d="M40-8H8c-2.21,0-4-1.79-4-4v-24c0-2.21,1.79-4,4-4h32c2.21,0,4,1.79,4,4l0,24C44-9.79,42.21-8,40-8z"/>
		<path class="st4" d="M40-40v32c0,2.21-1.79,4-4,4H12C9.79-4,8-5.79,8-8v-32c0-2.21,1.79-4,4-4h24C38.21-44,40-42.21,40-40z"/>
		<g class="st5">
			<path d="M47.75-0.25v-47.5H0.25v47.5H47.75 M48,0H0v-48h48V0L48,0z"/>
		</g>
	</g>
</symbol>
<g class="st6">
	<circle id="circle" class="st7" cx="12" cy="12" r="10"/>
	<path id="Rectangle" class="st7" d="M19,21H5c-1.1,0-2-0.9-2-2V5c0-1.1,0.9-2,2-2h14c1.1,0,2,0.9,2,2v14C21,20.1,20.1,21,19,21z"/>
	<path id="Vertical_Rectangle" class="st7" d="M6,22h12c1.1,0,2-0.9,2-2V4c0-1.1-0.9-2-2-2H6C4.9,2,4,2.9,4,4v16C4,21.1,4.9,22,6,22
		z"/>
	<path id="Horizontal_Rectangle" class="st7" d="M22,18V6c0-1.1-0.9-2-2-2H4C2.9,4,2,4.9,2,6v12c0,1.1,0.9,2,2,2h16
		C21.1,20,22,19.1,22,18z"/>
</g>
<g id="border" class="st6">
	
		<use xlink:href="#material_x5F_system_x5F_icon_x5F_border"  width="48" height="48" id="XMLID_2_" y="-48" transform="matrix(0.5 0 0 -0.5 -1.144415e-04 -8.010902e-05)" style="display:inline;overflow:visible;"/>
</g>
<g id="grid" class="st6">
	
		<use xlink:href="#material_x5F_system_x5F_icon_x5F_grid"  width="48" height="48" id="XMLID_1_" x="0" y="-48" transform="matrix(0.5 0 0 -0.5 -1.144415e-04 -8.010902e-05)" style="display:inline;overflow:visible;opacity:0.15;"/>
</g>
<g id="keylines">
	
		<use xlink:href="#material_x5F_system_x5F_icon_x5F_keylines"  width="48" height="48" id="XMLID_3_" x="0" y="-48" transform="matrix(0.5 0 0 -0.5 -1.144415e-04 -8.010902e-05)" style="overflow:visible;opacity:0;"/>
	<polygon class="st8" points="-13.13,34.41 -14.65,34.41 -14.65,30.82 -15.14,30.82 -15.14,34.91 -13.13,34.91 	"/>
	<polygon class="st8" points="-10.51,34.41 -12.17,34.41 -12.17,33.02 -11.05,33.02 -11.05,32.52 -12.17,32.52 -12.17,31.32 
		-10.6,31.32 -10.6,30.82 -12.65,30.82 -12.65,34.91 -10.51,34.91 	"/>
	<polygon class="st8" points="-13.16,36.43 -13.16,38.2 -14.65,38.2 -14.65,36.43 -15.14,36.43 -15.14,40.53 -14.65,40.53 
		-14.65,38.7 -13.16,38.7 -13.16,40.53 -12.68,40.53 -12.68,36.43 	"/>
	<path class="st8" d="M-9.52,33.67h1.05l0.31,1.24h0.5l-1.02-4.1H-9.3l-1.02,4.09h0.5L-9.52,33.67z M-9.4,33.15l0.41-1.81l0.41,1.81
		H-9.4z"/>
	<path class="st8" d="M-5.01,31.92c0.05-0.56-0.37-1.06-0.93-1.11c-0.07-0.01-0.14-0.01-0.21,0h-1.09v4.09h0.48v-1.79h0.64
		l0.65,1.79h0.52l-0.69-1.92C-5.22,32.79-4.98,32.37-5.01,31.92z M-6.76,31.32h0.58c0.49,0,0.69,0.19,0.69,0.63
		c0,0.44-0.22,0.66-0.69,0.66h-0.58V31.32z"/>
	<path class="st8" d="M-6.95,38.43c0.25-0.23,0.38-0.56,0.36-0.9c0.05-0.56-0.36-1.06-0.93-1.11c-0.07-0.01-0.14-0.01-0.21,0h-1.09
		v4.1h1.23c0.56,0.07,1.07-0.34,1.13-0.89c0.01-0.07,0.01-0.14,0-0.21C-6.43,39.02-6.62,38.65-6.95,38.43z M-8.34,36.93h0.58
		c0.49,0,0.69,0.19,0.69,0.63s-0.22,0.66-0.69,0.66h-0.58V36.93z M-7.63,40.03h-0.71v-1.31h0.72c0.47,0,0.69,0.21,0.69,0.67
		C-6.93,39.83-7.16,40.03-7.63,40.03z"/>
	<polygon class="st8" points="-1.85,30.82 -2.3,30.82 -2.3,33.69 -3.62,30.82 -4.23,30.82 -4.23,34.91 -3.79,34.91 -3.79,31.57 
		-2.25,34.91 -1.85,34.91 	"/>
	<rect x="-1.07" y="30.82" class="st8" width="0.48" height="4.1"/>
	<polygon class="st8" points="0.75,31.57 2.29,34.91 2.69,34.91 2.69,30.82 2.24,30.82 2.24,33.69 0.92,30.82 0.31,30.82 
		0.31,34.91 0.75,34.91 	"/>
	<path class="st8" d="M4.53,31.26c0.37,0,0.6,0.25,0.74,0.83v0.06l0.44-0.11v-0.06c-0.18-0.81-0.6-1.22-1.22-1.22
		c-0.84,0-1.31,0.77-1.31,2.11s0.48,2.11,1.31,2.11c0.29,0.01,0.58-0.1,0.79-0.31v0.24h0.44v-2.03H4.51v0.5h0.73v0.28
		c0,0.51-0.27,0.82-0.71,0.82c-0.56,0-0.88-0.57-0.88-1.61C3.66,31.83,3.98,31.26,4.53,31.26z"/>
	<path class="st8" d="M-10.04,36.42v2.86c0,0.41-0.34,0.75-0.75,0.75s-0.75-0.34-0.75-0.75v-2.86h-0.48v2.86
		c0,0.68,0.55,1.23,1.23,1.22c0.68,0,1.22-0.55,1.22-1.22l0,0v-2.86H-10.04z"/>
	<rect x="3" y="3.07" class="st9" width="17.93" height="17.93"/>
	<path class="st10" d="M4.81,15V8.83h1.53c1.41,0,2.05,0.46,2.05,1.6c0.04,0.56-0.28,1.09-0.8,1.31l0,0
		c0.63,0.2,1.02,0.82,0.95,1.47c0,1.42-0.92,1.77-2.13,1.77L4.81,15z M6.38,11.4c0.52,0,0.99-0.19,0.99-0.87
		c0-0.68-0.49-0.77-0.99-0.77H5.81v1.65L6.38,11.4z M6.48,14.09c0.72,0,1.02-0.25,1.02-0.92s-0.34-0.95-1.02-0.95H5.81v1.87H6.48z"
		/>
	<path class="st10" d="M13.02,12.99c-0.19,1.37-0.76,2.09-1.89,2.09c-1.48,0-1.96-1.2-1.96-3.2c0-1.78,0.52-3.14,1.98-3.14
		c1.2,0,1.66,0.74,1.81,2l-0.94,0.08c-0.13-0.78-0.4-1.17-0.85-1.17c-0.63,0-0.95,0.66-0.95,2.23c0,1.71,0.28,2.29,0.94,2.29
		c0.49,0,0.78-0.44,0.91-1.28L13.02,12.99z"/>
	<path class="st10" d="M13.89,15V8.83h1.02V15H13.89z"/>
	<path class="st10" d="M17.02,15V9.76h-1.27V8.83h3.56v0.93h-1.27V15H17.02z"/>
	<path class="st11" d="M21.07,3.83c-0.03-0.4,0.27-0.75,0.67-0.78s0.75,0.27,0.78,0.67c0,0.04,0,0.07,0,0.11
		c0.03,0.4-0.27,0.75-0.67,0.78s-0.75-0.27-0.78-0.67C21.07,3.9,21.07,3.87,21.07,3.83z M22.37,3.83c0-0.32-0.26-0.58-0.58-0.58
		s-0.58,0.26-0.58,0.58l0,0c0,0.32,0.26,0.58,0.58,0.58S22.37,4.15,22.37,3.83z M21.97,4.23L21.81,3.9h-0.16v0.33H21.5V3.39h0.28
		c0.21,0,0.33,0.07,0.33,0.25c0,0.1-0.06,0.19-0.16,0.22l0.19,0.37H21.97z M21.78,3.78c0.1,0,0.18-0.03,0.18-0.13
		s-0.08-0.12-0.18-0.12h-0.13v0.25H21.78z"/>
</g>
</svg>
