<?xml version="1.0" standalone="no"?>
<!DOCTYPE svg PUBLIC "-//W3C//DTD SVG 20010904//EN"
 "http://www.w3.org/TR/2001/REC-SVG-20010904/DTD/svg10.dtd">
<svg version="1.0" xmlns="http://www.w3.org/2000/svg"
 width="78.000000pt" height="78.000000pt" viewBox="0 0 78.000000 78.000000"
 preserveAspectRatio="xMidYMid meet">
<metadata>
Created by potrace 1.11, written by Peter Selinger 2001-2013
</metadata>
<g transform="translate(0.000000,78.000000) scale(0.100000,-0.100000)"
fill="#000000" stroke="none">
<path d="M273 756 c-104 -34 -195 -114 -241 -214 -23 -49 -27 -70 -27 -152 0
-87 3 -101 32 -161 39 -80 111 -150 191 -187 50 -24 69 -27 157 -27 88 0 107
3 158 27 80 38 158 115 193 191 26 54 29 73 29 157 0 84 -3 103 -29 157 -35
77 -113 154 -193 191 -70 31 -201 40 -270 18z m213 -226 c9 0 14 -11 14 -30 0
-29 0 -29 -49 -23 -46 5 -52 3 -80 -25 -33 -33 -40 -72 -20 -115 17 -37 51
-51 104 -44 46 7 46 6 43 -20 -6 -56 -128 -55 -184 1 -101 101 -11 281 130
260 16 -2 35 -4 42 -4z"/>
</g>
</svg>
